{"title":"Cathedrals of Culture HDTV 720p Legendado PT-BR","uid":13837199,"size":6539482349,"categoryP":"video","categoryS":"hd___movies","magnet":"?xt=urn:btih:1a2e6a74ccdc3e2f6f0c51cb44bd41e0ab206961&amp;dn=Cathedrals+of+Culture+HDTV+720p+Legendado+PT-BR&amp;tr=udp%3A%2F%2Ftracker.leechers-paradise.org%3A6969&amp;tr=udp%3A%2F%2Fzer0day.ch%3A1337&amp;tr=udp%3A%2F%2Fopen.demonii.com%3A1337&amp;tr=udp%3A%2F%2Ftracker.coppersurfer.tk%3A6969&amp;tr=udp%3A%2F%2Fexodus.desync.com%3A6969","seeders":1,"leechers":2,"uploader":null,"files":6,"time":1457772804,"description":"Audio: English\r\nLegendas/subbitles: Português (hardsubed)\r\n\r\n=========================================\r\nEpisode 1: THE BERLIN PHILHARMONIC\r\nDirector/screenwriter: Wim Wenders\r\n\r\nEpisode 2: THE NATIONAL LIBRARY OF RUSSIA\r\nDirector/screenwriter: Michael Glawogger\r\n\r\nEpisode 3: HALDEN PRISON\r\nDirector/screenwriter: Michael Madsen\r\n\r\nEpisode 4: THE SALK INSTITUTE\r\nDirector: Robert Redford\r\n\r\nEpisode 5: THE OSLO OPERA HOUSE\r\nDirector:  Margreth Olin\r\n\r\nEpisode 6: CENTRE GEORGES POMPIDOU\r\nDirector/screenwriter: Karim Ainouz\r\n\r\n=========================================\r\n\r\nSix directors tackle the question &quot;If buildings could talk, what would they say about us?&quot; by capturing iconic buildings with narration from the perspective of the buildings. \r\nFor all its indulgences, this is a valuable film and a palate-cleansing experience, and an idealistic, high-minded meditation on architecture, the public space and the life of the mind. Originally commissioned as a TV series of six episodes, presented like this it is perhaps not quite a film, but more of a quasi-installation /cine-event.\r\n\r\n=========================================\r\n\r\nSeis diretores lidam com a questão &quot;se os prédios pudessem falar, o que eles diriam sobre nós?&quot; filmando prédios icônicos e narrados pelos próprios prédios.\r\nApesar de todas as suas indulgências, esse é um filme de valor, um tira gosto, idealista, uma nobre meditação sobre arquitetura, sobre o espaço público e a imaginação. Encomendado originalmente como uma série de TV em 6 episódios, a forma como aqui é apresentado não chega a ser um filme, mais parece uma instalação, um cine-evento.\r\n\r\n=========================================\r\n\r\nVideo\r\nID                             : 1\r\nFormat                         : AVC\r\nFormat/Info                    : Advanced Video Codec\r\nFormat profile                 :   \r\nFormat settings, CABAC         : Yes\r\nFormat settings, ReFrames      : 4 frames\r\nCodec ID                       : V_MPEG4/ISO/AVC\r\nDuration                       : 27mn 52s\r\nBit rate                       : 4 999 Kbps\r\nWidth                          : 1 280 pixels\r\nHeight                         : 720 pixels\r\nDisplay aspect ratio           : 16:9\r\nFrame rate mode                : Constant\r\nFrame rate                     : 59.880 fps\r\nOriginal frame rate            : 59.940 fps\r\nColor space                    : YUV\r\nChroma subsampling             : 4:2:0\r\nBit depth                      : 8 bits\r\nScan type                      : Progressive\r\nBits/(Pixel*Frame)             : 0.091\r\nStream size                    : 975 MiB (91%)\r\n\r\n\r\nAudio\r\nID                             : 2\r\nFormat                         : AC-3\r\nFormat/Info                    : Audio Coding 3\r\nMode extension                 : CM (complete main)\r\nFormat settings, Endianness    : Big\r\nCodec ID                       : A_AC3\r\nDuration                       : 27mn 52s\r\nBit rate mode                  : Constant\r\nBit rate                       : 384 Kbps\r\nChannel(s)                     : 2 channels\r\nChannel positions              : Front: L R\r\nSampling rate                  : 48.0 KHz\r\nBit depth                      : 16 bits\r\nCompression mode               : Lossy\r\nStream size                    : 76.6 MiB (7%)\r\nLanguage                       : English\r\nDefault                        : Yes\r\nForced                         : No","torrent":{"xt":"urn:btih:1a2e6a74ccdc3e2f6f0c51cb44bd41e0ab206961","amp;dn":"Cathedrals+of+Culture+HDTV+720p+Legendado+PT-BR","amp;tr":["udp%3A%2F%2Ftracker.leechers-paradise.org%3A6969","udp%3A%2F%2Fzer0day.ch%3A1337","udp%3A%2F%2Fopen.demonii.com%3A1337","udp%3A%2F%2Ftracker.coppersurfer.tk%3A6969","udp%3A%2F%2Fexodus.desync.com%3A6969"],"infoHash":"1a2e6a74ccdc3e2f6f0c51cb44bd41e0ab206961","infoHashBuffer":{"type":"Buffer","data":[26,46,106,116,204,220,62,47,111,12,81,203,68,189,65,224,171,32,105,97]},"announce":[],"urlList":[]}}